name rise36.2859peak64.2979fall75.1499.mot
datacolumns 19
datarows 27
range 6.81163700000000 6.85497300000000
endheader
time	ground_force1_vx	ground_force1_vy	ground_force1_vz	ground_force1_px	ground_force1_py	ground_force1_pz	ground_force2_vx	ground_force2_vy	ground_force2_vz	ground_force2_px	ground_force2_py	ground_force2_pz	ground_torque1_x	ground_torque1_y	ground_torque1_z	ground_torque2_x	ground_torque2_y	ground_torque2_z	
6.81163700000000	68.07446700000000	791.99004300000001	56.60758600000000	0.42560900000000	0.00000000000000	0.09788100000000	0.00000000000000	0.00000000000000	0.00000000000000	0.00000000000000	0.00000000000000	0.00000000000000	0.00000000000000	34.32962800000000	0.00000000000000	0.00000000000000	0.00000000000000	0.00000000000000	
6.81330700000000	67.59043800000001	794.03235500000005	56.78492900000000	0.42447800000000	0.00000000000000	0.09796000000000	0.00000000000000	0.00000000000000	0.00000000000000	0.00000000000000	0.00000000000000	0.00000000000000	0.00000000000000	34.42512200000000	0.00000000000000	0.00000000000000	0.00000000000000	0.00000000000000	
6.81497300000000	67.09519500000000	795.91813700000000	56.95886100000000	0.42335500000000	0.00000000000000	0.09804100000000	0.00000000000000	0.00000000000000	0.00000000000000	0.00000000000000	0.00000000000000	0.00000000000000	0.00000000000000	34.52075500000000	0.00000000000000	0.00000000000000	0.00000000000000	0.00000000000000	
6.81664300000000	66.58919200000000	797.64630699999998	57.12874300000000	0.42224000000000	0.00000000000000	0.09812200000000	0.00000000000000	0.00000000000000	0.00000000000000	0.00000000000000	0.00000000000000	0.00000000000000	0.00000000000000	34.61602300000000	0.00000000000000	0.00000000000000	0.00000000000000	0.00000000000000	
6.81830400000000	66.07286800000000	799.21597499999996	57.29390900000000	0.42113500000000	0.00000000000000	0.09820300000000	0.00000000000000	0.00000000000000	0.00000000000000	0.00000000000000	0.00000000000000	0.00000000000000	0.00000000000000	34.71040400000000	0.00000000000000	0.00000000000000	0.00000000000000	0.00000000000000	
6.81998000000000	65.54664500000000	800.62645299999997	57.45367700000000	0.42003900000000	0.00000000000000	0.09828400000000	0.00000000000000	0.00000000000000	0.00000000000000	0.00000000000000	0.00000000000000	0.00000000000000	0.00000000000000	34.80334900000000	0.00000000000000	0.00000000000000	0.00000000000000	0.00000000000000	
6.82163700000000	65.01093200000000	801.87726599999996	57.60735000000000	0.41895300000000	0.00000000000000	0.09836600000000	0.00000000000000	0.00000000000000	0.00000000000000	0.00000000000000	0.00000000000000	0.00000000000000	0.00000000000000	34.89430000000000	0.00000000000000	0.00000000000000	0.00000000000000	0.00000000000000	
6.82330900000000	64.46612700000000	802.96815900000001	57.75422800000000	0.41787600000000	0.00000000000000	0.09844800000000	0.00000000000000	0.00000000000000	0.00000000000000	0.00000000000000	0.00000000000000	0.00000000000000	0.00000000000000	34.98268700000000	0.00000000000000	0.00000000000000	0.00000000000000	0.00000000000000	
6.82498600000000	63.91261300000000	803.89910599999996	57.89361200000000	0.41680900000000	0.00000000000000	0.09853000000000	0.00000000000000	0.00000000000000	0.00000000000000	0.00000000000000	0.00000000000000	0.00000000000000	0.00000000000000	35.06793500000000	0.00000000000000	0.00000000000000	0.00000000000000	0.00000000000000	
6.82664300000000	63.35076600000000	804.67031799999995	58.02480700000000	0.41575200000000	0.00000000000000	0.09861100000000	0.00000000000000	0.00000000000000	0.00000000000000	0.00000000000000	0.00000000000000	0.00000000000000	0.00000000000000	35.14946900000000	0.00000000000000	0.00000000000000	0.00000000000000	0.00000000000000	
6.82832700000000	62.78095400000000	805.28224999999998	58.14713500000000	0.41470400000000	0.00000000000000	0.09869300000000	0.00000000000000	0.00000000000000	0.00000000000000	0.00000000000000	0.00000000000000	0.00000000000000	0.00000000000000	35.22672200000000	0.00000000000000	0.00000000000000	0.00000000000000	0.00000000000000	
6.82998300000000	62.20353300000000	805.73560299999997	58.25993500000000	0.41366700000000	0.00000000000000	0.09877300000000	0.00000000000000	0.00000000000000	0.00000000000000	0.00000000000000	0.00000000000000	0.00000000000000	0.00000000000000	35.29913400000000	0.00000000000000	0.00000000000000	0.00000000000000	0.00000000000000	
6.83164000000000	61.61885800000000	806.03133300000002	58.36257000000000	0.41263800000000	0.00000000000000	0.09885400000000	0.00000000000000	0.00000000000000	0.00000000000000	0.00000000000000	0.00000000000000	0.00000000000000	0.00000000000000	35.36615900000000	0.00000000000000	0.00000000000000	0.00000000000000	0.00000000000000	
6.83330900000000	61.02727500000000	806.17065200000002	58.45443600000000	0.41162000000000	0.00000000000000	0.09893300000000	0.00000000000000	0.00000000000000	0.00000000000000	0.00000000000000	0.00000000000000	0.00000000000000	0.00000000000000	35.42727000000000	0.00000000000000	0.00000000000000	0.00000000000000	0.00000000000000	
6.83497200000000	60.42912700000000	806.15503200000001	58.53496000000000	0.41061000000000	0.00000000000000	0.09901200000000	0.00000000000000	0.00000000000000	0.00000000000000	0.00000000000000	0.00000000000000	0.00000000000000	0.00000000000000	35.48196200000000	0.00000000000000	0.00000000000000	0.00000000000000	0.00000000000000	
6.83663900000000	59.82475400000000	805.98620700000004	58.60361100000000	0.40960900000000	0.00000000000000	0.09909000000000	0.00000000000000	0.00000000000000	0.00000000000000	0.00000000000000	0.00000000000000	0.00000000000000	0.00000000000000	35.52975500000000	0.00000000000000	0.00000000000000	0.00000000000000	0.00000000000000	
6.83831000000000	59.21449200000000	805.66617199999996	58.65990100000000	0.40861700000000	0.00000000000000	0.09916700000000	0.00000000000000	0.00000000000000	0.00000000000000	0.00000000000000	0.00000000000000	0.00000000000000	0.00000000000000	35.57019900000000	0.00000000000000	0.00000000000000	0.00000000000000	0.00000000000000	
6.83998100000000	58.59867800000000	805.19718699999999	58.70338900000000	0.40763300000000	0.00000000000000	0.09924300000000	0.00000000000000	0.00000000000000	0.00000000000000	0.00000000000000	0.00000000000000	0.00000000000000	0.00000000000000	35.60287500000000	0.00000000000000	0.00000000000000	0.00000000000000	0.00000000000000	
6.84163900000000	57.97764400000000	804.58176900000001	58.73368600000000	0.40665600000000	0.00000000000000	0.09931800000000	0.00000000000000	0.00000000000000	0.00000000000000	0.00000000000000	0.00000000000000	0.00000000000000	0.00000000000000	35.62740000000000	0.00000000000000	0.00000000000000	0.00000000000000	0.00000000000000	
6.84330300000000	57.35172600000000	803.82269899999994	58.75045700000000	0.40568600000000	0.00000000000000	0.09939100000000	0.00000000000000	0.00000000000000	0.00000000000000	0.00000000000000	0.00000000000000	0.00000000000000	0.00000000000000	35.64342700000000	0.00000000000000	0.00000000000000	0.00000000000000	0.00000000000000	
6.84497600000000	56.72125800000000	802.92300899999998	58.75342100000000	0.40472300000000	0.00000000000000	0.09946400000000	0.00000000000000	0.00000000000000	0.00000000000000	0.00000000000000	0.00000000000000	0.00000000000000	0.00000000000000	35.65064900000000	0.00000000000000	0.00000000000000	0.00000000000000	0.00000000000000	
6.84664100000000	56.08657500000000	801.88598700000000	58.74235900000000	0.40376600000000	0.00000000000000	0.09953500000000	0.00000000000000	0.00000000000000	0.00000000000000	0.00000000000000	0.00000000000000	0.00000000000000	0.00000000000000	35.64880000000000	0.00000000000000	0.00000000000000	0.00000000000000	0.00000000000000	
6.84831600000000	55.44801200000000	800.71516599999995	58.71710700000000	0.40281400000000	0.00000000000000	0.09960500000000	0.00000000000000	0.00000000000000	0.00000000000000	0.00000000000000	0.00000000000000	0.00000000000000	0.00000000000000	35.63765700000000	0.00000000000000	0.00000000000000	0.00000000000000	0.00000000000000	
6.84997900000000	54.80590700000000	799.41432099999997	58.67756700000000	0.40186700000000	0.00000000000000	0.09967300000000	0.00000000000000	0.00000000000000	0.00000000000000	0.00000000000000	0.00000000000000	0.00000000000000	0.00000000000000	35.61704100000000	0.00000000000000	0.00000000000000	0.00000000000000	0.00000000000000	
6.85164500000000	54.16059900000000	797.98746000000006	58.62369800000000	0.40092300000000	0.00000000000000	0.09974100000000	0.00000000000000	0.00000000000000	0.00000000000000	0.00000000000000	0.00000000000000	0.00000000000000	0.00000000000000	35.58681500000000	0.00000000000000	0.00000000000000	0.00000000000000	0.00000000000000	
6.85331000000000	53.51242800000000	796.43882099999996	58.55552500000000	0.39998300000000	0.00000000000000	0.09980700000000	0.00000000000000	0.00000000000000	0.00000000000000	0.00000000000000	0.00000000000000	0.00000000000000	0.00000000000000	35.54689000000000	0.00000000000000	0.00000000000000	0.00000000000000	0.00000000000000	
6.85497300000000	52.86173600000000	794.77285600000005	58.47313000000000	0.39904500000000	0.00000000000000	0.09987100000000	0.00000000000000	0.00000000000000	0.00000000000000	0.00000000000000	0.00000000000000	0.00000000000000	0.00000000000000	35.49722000000000	0.00000000000000	0.00000000000000	0.00000000000000	0.00000000000000	
